mtllib data/floor/floor.mtl
v -8.999994 0.000004 -4.041462
v -7.999997 0.000004 -4.618802
v -8.000005 0.000006 5.773492
v -7.999997 0.000005 4.618800
v -0.999992 0.000006 9.814958
v 8.999999 0.000004 -4.041462
v 8.000004 0.000004 -5.773494
v 7.999997 0.000004 -4.618802
v 8.000008 0.000005 5.773497
v 8.999994 0.000005 4.041460
v -0.999991 0.000003 -9.814953
v -0.000000 0.000006 9.237601
v 0.999990 0.000006 9.814953
v -8.999998 0.000005 4.041460
v 0.999991 0.000003 -9.814958
v -0.000001 0.000003 -9.237601
v 7.999998 0.000005 4.618800
v -8.000009 0.000004 -5.773497
vt 0.499138 -1.807826
vt 4.496410 -0.653912
vt -3.498132 -0.653914
vt -3.498133 1.653911
vt 4.496408 1.653913
vt 0.499135 2.807826
vt 4.496411 1.942390
vt 4.996068 -0.509676
vt -0.000520 2.952065
vt -3.498139 1.942389
vt 0.998792 -1.952066
vt 4.496414 -0.942390
vt -3.498135 -0.942392
vt -3.997792 1.509675
vt 0.998792 2.952067
vt 4.996068 1.509678
vt -0.000517 -1.952067
vt -3.997792 -0.509678
vn -0.0000 1.0000 -0.0000
usemtl Material.017
s off
f 4/1/1 12/2/1 2/3/1
f 16/4/1 2/3/1 12/2/1
f 17/5/1 16/4/1 12/2/1
f 8/6/1 16/4/1 17/5/1
f 10/7/1 8/6/1 17/5/1
f 13/8/1 17/5/1 12/2/1
f 16/4/1 7/9/1 15/10/1
f 12/2/1 3/11/1 5/12/1
f 1/13/1 4/1/1 2/3/1
f 11/14/1 2/3/1 16/4/1
f 10/7/1 6/15/1 8/6/1
f 13/8/1 9/16/1 17/5/1
f 16/4/1 8/6/1 7/9/1
f 12/2/1 4/1/1 3/11/1
f 1/13/1 14/17/1 4/1/1
f 11/14/1 18/18/1 2/3/1
