mtllib data/wall/wall.mtl
o Cylinder.011_Cylinder.032
v -13.000008 3.999995 7.505555
v -0.000002 3.999995 15.011114
v 0.000000 3.999995 -15.011114
v 13.000007 3.999996 -7.505556
v 13.000006 3.999995 7.505559
v -13.000008 3.999995 -7.505556
v -13.000008 10.999994 7.505555
v -0.000002 10.999994 15.011114
v 0.000000 10.999994 -15.011114
v 13.000007 10.999994 -7.505556
v 13.000006 10.999994 7.505559
v -13.000008 10.999994 -7.505556
vt -1.767595 0.999892
vt 2.771535 -1.006176
vt 2.771535 0.999892
vt -1.767595 0.999892
vt 2.771535 -1.006176
vt 2.771535 0.999892
vt -1.767595 0.999892
vt 2.771535 -1.006176
vt 2.771535 0.999892
vt -1.767595 0.999892
vt 2.771535 -1.006176
vt 2.771535 0.999892
vt -1.767595 0.999892
vt 2.771535 -1.006176
vt 2.771535 0.999892
vt -1.767595 0.999892
vt 2.771535 -1.006176
vt 2.771535 0.999892
vt -1.767595 -1.006176
vt -1.767595 -1.006176
vt -1.767595 -1.006176
vt -1.767595 -1.006176
vt -1.767595 -1.006176
vt -1.767595 -1.006176
vn -0.5000 0.0000 -0.8660
vn -0.5000 0.0000 0.8660
vn 0.5000 0.0000 -0.8660
vn -1.0000 0.0000 -0.0000
vn 0.5000 0.0000 0.8660
vn 1.0000 0.0000 0.0000
usemtl Material.012
s off
f 2/1/1 11/2/1 5/3/1
f 4/4/2 9/5/2 3/6/2
f 1/7/3 8/8/3 2/9/3
f 5/10/4 10/11/4 4/12/4
f 3/13/5 12/14/5 6/15/5
f 6/16/6 7/17/6 1/18/6
f 2/1/1 8/19/1 11/2/1
f 4/4/2 10/20/2 9/5/2
f 1/7/3 7/21/3 8/8/3
f 5/10/4 11/22/4 10/11/4
f 3/13/5 9/23/5 12/14/5
f 6/16/6 12/24/6 7/17/6
