mtllib data/projector/projector.mtl
v -4.600000 0.900000 0.600000
v -4.600000 0.900000 -0.600000
v -3.700000 0.900000 -0.600000
v -3.700000 0.900000 0.600000
v -4.600000 0.000000 0.600000
v -4.600000 0.000000 -0.600000
v -3.000000 0.000000 0.600000
v -3.000000 0.000000 -0.600000
v 1.780385 0.900000 -4.283717
v 2.819615 0.900000 -3.683717
v 2.369616 0.900000 -2.904294
v 1.330385 0.900000 -3.504294
v 1.780385 0.000000 -4.283717
v 2.819615 0.000000 -3.683717
v 0.980385 0.000000 -2.898076
v 2.019615 0.000000 -2.298076
v 2.819615 0.900000 3.683718
v 1.780385 0.900000 4.283717
v 1.330384 0.900000 3.504294
v 2.369615 0.900000 2.904294
v 2.819615 0.000000 3.683718
v 1.780385 0.000000 4.283717
v 2.019615 0.000000 2.298077
v 0.980385 0.000000 2.898076
vt 0.408218 0.871577
vt 0.147427 0.176134
vt 0.408218 0.176134
vt 0.565020 0.131549
vt 0.936943 0.843871
vt 0.565020 0.843871
vt 0.214917 0.008441
vt 0.475708 0.530024
vt 0.012079 0.530023
vt 0.147407 0.176158
vt 0.408198 0.871601
vt 0.147407 0.871601
vt 0.475682 0.008449
vt 0.214891 0.530032
vt 0.012053 0.008449
vt 0.408218 0.176134
vt 0.147427 0.871577
vt 0.147427 0.176134
vt 0.565020 0.131549
vt 0.936943 0.843871
vt 0.565020 0.843871
vt 0.214917 0.008441
vt 0.475708 0.530024
vt 0.012079 0.530023
vt 0.147407 0.176158
vt 0.408198 0.871601
vt 0.147407 0.871601
vt 0.475682 0.008449
vt 0.214891 0.530032
vt 0.012053 0.008449
vt 0.408218 0.176134
vt 0.147427 0.871577
vt 0.147427 0.176134
vt 0.565020 0.131549
vt 0.936943 0.843871
vt 0.565020 0.843871
vt 0.214917 0.008441
vt 0.475708 0.530024
vt 0.012079 0.530023
vt 0.147407 0.176158
vt 0.408198 0.871601
vt 0.147407 0.871601
vt 0.475682 0.008449
vt 0.214891 0.530032
vt 0.012053 0.008449
vt 0.147427 0.871577
vt 0.936943 0.131550
vt 0.475708 0.008441
vt 0.408198 0.176158
vt 0.475682 0.530032
vt 0.408218 0.871577
vt 0.936943 0.131550
vt 0.475708 0.008441
vt 0.408198 0.176158
vt 0.475682 0.530032
vt 0.408218 0.871577
vt 0.936943 0.131550
vt 0.475708 0.008441
vt 0.408198 0.176158
vt 0.475682 0.530032
vn 0.0000 1.0000 0.0000
vn 0.7894 0.6139 0.0000
vn 0.0000 0.0000 1.0000
vn -1.0000 0.0000 0.0000
vn 0.0000 0.0000 -1.0000
vn -0.3947 0.6139 0.6836
vn -0.8660 0.0000 -0.5000
vn 0.5000 0.0000 -0.8660
vn 0.8660 -0.0000 0.5000
vn -0.3947 0.6139 -0.6836
vn 0.8660 0.0000 -0.5000
vn 0.5000 0.0000 0.8660
vn -0.8660 -0.0000 0.5000
usemtl Material.001
s off
f 3/1/1 1/2/1 4/3/1
f 3/4/2 7/5/2 8/6/2
f 4/7/3 5/8/3 7/9/3
f 2/10/4 5/11/4 1/12/4
f 6/13/5 3/14/5 8/15/5
f 12/16/1 10/17/1 9/18/1
f 11/19/6 15/20/6 16/21/6
f 12/22/7 13/23/7 15/24/7
f 10/25/8 13/26/8 9/27/8
f 14/28/9 11/29/9 16/30/9
f 20/31/1 18/32/1 17/33/1
f 19/34/10 23/35/10 24/36/10
f 20/37/11 21/38/11 23/39/11
f 18/40/12 21/41/12 17/42/12
f 22/43/13 19/44/13 24/45/13
f 3/1/1 2/46/1 1/2/1
f 3/4/2 4/47/2 7/5/2
f 4/7/3 1/48/3 5/8/3
f 2/10/4 6/49/4 5/11/4
f 6/13/5 2/50/5 3/14/5
f 12/16/1 11/51/1 10/17/1
f 11/19/6 12/52/6 15/20/6
f 12/22/7 9/53/7 13/23/7
f 10/25/8 14/54/8 13/26/8
f 14/28/9 10/55/9 11/29/9
f 20/31/1 19/56/1 18/32/1
f 19/34/10 20/57/10 23/35/10
f 20/37/11 17/58/11 21/38/11
f 18/40/12 22/59/12 21/41/12
f 22/43/13 18/60/13 19/44/13
