# Blender v2.80 (sub 75) OBJ File: 'chair.blend'
# www.blender.org
mtllib data/materials/sofa.mtl
o Cube.001
v -0.110000 0.400000 -0.400000
v -0.110000 0.400000 0.400000
v -0.200000 1.000000 -0.399999
v -0.200001 1.000000 0.400001
v -0.500000 1.000000 0.400000
v -0.500000 1.000000 -0.400000
v 0.500000 0.400000 -0.400000
v 0.500000 0.400000 0.400000
v -0.140000 0.600000 -0.400000
v -0.140000 0.600000 0.400000
v -0.500000 0.600000 0.400000
v -0.500000 0.600000 -0.400000
v 0.500000 0.600000 -0.400000
v 0.500000 0.600000 -0.600000
v -0.500000 0.000000 -0.600000
v 0.500000 0.000000 -0.600000
v -0.500000 0.600000 -0.600000
v 0.500000 0.600000 0.600000
v -0.500000 0.600000 0.600000
v 0.500000 0.600000 0.400000
v -0.500000 0.000000 0.600000
v 0.500000 0.000000 0.600000
vt 0.609375 0.210938
vt 0.099930 0.511182
vt -0.000068 0.211187
vt 0.507812 0.507812
vt 0.099931 0.711179
vt -0.000000 1.000000
vt 0.406250 0.703125
vt 0.406250 1.000000
vt 0.500000 1.000000
vt 0.000000 1.000000
vt 0.500000 0.703125
vt -0.000000 0.703125
vt 0.500000 0.703125
vt 0.500000 1.000000
vt -0.000068 0.511182
vt 0.148438 0.796875
vt 0.000000 1.000000
vt 0.179688 1.000000
vt 0.101562 0.695312
vt 0.101562 1.000000
vt 0.000000 1.000000
vt 0.148438 0.796875
vt 0.179688 1.000000
vt 0.000000 1.000000
vt 0.492188 1.000000
vt -0.000000 1.000000
vt 0.179688 0.898438
vt 0.000000 0.898438
vt 0.000000 0.679688
vt 0.000000 1.000000
vt 0.101562 0.695312
vt 0.609375 0.507812
vt 0.203125 1.000000
vt 0.203125 0.593750
vt 0.304688 1.000000
vt -0.000000 1.000000
vt 0.000000 0.593750
vt 0.492188 1.000000
vt 0.492188 0.898438
vt 0.492188 0.898438
vt 0.507812 0.710938
vt 0.000000 1.000000
vt 0.000000 0.593750
vt 0.148438 1.000000
vt 0.148438 0.593750
vt 0.304688 0.593750
vt 0.101562 1.000000
vt 0.000000 0.679688
vt 0.000000 0.703125
vt -0.000000 1.000000
vt 0.101562 0.898438
vt 0.101562 1.000000
vt 0.000000 0.695312
vt 0.507812 1.000000
vt 0.507812 0.898438
vt 0.609375 1.000000
vt 0.609375 0.695312
vt 0.000000 0.796875
vt 0.000000 0.796875
vt 0.000000 0.703125
vt 0.000000 1.000000
vt 0.000000 0.898438
vn -1.0000 0.0000 -0.0000
vn 0.0000 1.0000 0.0000
vn 0.0000 0.0000 1.0000
vn -0.0000 0.0000 -1.0000
vn 0.9889 0.1483 0.0000
vn 1.0000 0.0000 -0.0000
usemtl Material
s off
f 21/1/1 12/2/1 15/3/1
f 12/2/1 11/4/1 6/5/1
f 7/6/2 2/7/2 8/8/2
f 18/9/3 19/10/3 22/11/3
f 16/12/4 15/13/4 17/14/4
f 17/15/1 15/3/1 12/2/1
f 4/16/3 11/17/3 10/18/3
f 1/19/3 7/20/3 13/21/3
f 3/22/4 9/23/4 12/24/4
f 14/25/2 17/26/2 9/27/2
f 12/28/2 9/27/2 17/26/2
f 10/29/4 20/30/4 2/31/4
f 19/32/1 11/4/1 21/1/1
f 9/33/5 10/34/5 1/35/5
f 3/36/5 4/37/5 9/33/5
f 20/38/2 10/18/2 18/39/2
f 13/40/2 14/25/2 9/27/2
f 11/4/1 5/41/1 6/5/1
f 12/2/1 21/1/1 11/4/1
f 6/42/2 5/43/2 3/44/2
f 4/45/2 3/44/2 5/43/2
f 10/34/5 9/33/5 4/37/5
f 2/46/5 1/35/5 10/34/5
f 2/31/4 20/30/4 8/47/4
f 9/48/3 1/19/3 13/21/3
f 1/49/2 2/7/2 7/6/2
f 18/50/6 8/51/6 20/52/6
f 18/50/6 22/53/6 8/51/6
f 13/54/6 7/55/6 14/56/6
f 16/57/6 14/56/6 7/55/6
f 8/51/6 22/53/6 16/57/6
f 7/55/6 8/51/6 16/57/6
f 12/24/4 6/58/4 3/22/4
f 11/17/3 4/16/3 5/59/3
f 21/60/3 22/11/3 19/10/3
f 14/61/4 16/12/4 17/14/4
f 18/39/2 10/18/2 19/62/2
f 11/17/2 19/62/2 10/18/2
