# Blender v2.80 (sub 75) OBJ File: 'window.blend'
# www.blender.org
mtllib data/materials/window.mtl
o Plane
v 0.000000 0.200000 2.700000
v 0.000000 0.200000 -2.700000
v 0.000000 0.300000 -2.800000
v 0.000000 4.700000 -2.800000
v 0.000000 0.300000 2.800000
v 0.000000 4.700000 2.800000
v 0.000000 4.800000 -2.700000
v 0.000000 4.800000 2.700000
v 0.400000 0.200000 2.700000
v 0.400000 0.200000 -2.700000
v 0.400000 0.300000 -2.800000
v 0.400000 4.700000 -2.800000
v 0.400000 0.300000 2.800000
v 0.400000 4.700000 2.800000
v 0.400000 4.800000 -2.700000
v 0.400000 4.800000 2.700000
v 0.000000 0.000000 3.000000
v 0.000000 0.200000 2.700001
v 0.000000 0.000000 -3.000000
v 0.000000 0.200000 -2.700000
v 0.000000 0.300000 -2.800000
v 0.000000 4.700000 -2.800000
v 0.000000 5.000000 -3.000000
v 0.000000 0.300000 2.800000
v 0.000000 4.700000 2.800000
v 0.000000 5.000000 3.000000
v 0.000000 4.800000 -2.700000
v 0.000000 4.800000 2.700001
vt -2.265625 0.546875
vt 3.140625 0.546875
vt 3.140625 0.953125
vt -2.265625 0.953125
vt -2.265625 0.546875
vt 3.140625 0.546875
vt 3.140625 0.953125
vt -2.265625 0.953125
vt -2.406250 0.546875
vt -2.406250 0.953125
vt -2.265625 0.546875
vt 3.140625 0.546875
vt 3.140625 0.953125
vt -2.265625 0.953125
vt -2.406250 0.546875
vt -2.406250 0.953125
vt -2.265625 0.546875
vt 3.140625 0.546875
vt 3.140625 0.953125
vt -2.265625 0.953125
vt -2.406250 0.546875
vt -2.406250 0.953125
vt -2.406250 0.546875
vt -2.406250 0.953125
vt -2.500000 0.328125
vt -2.312500 0.125000
vt 3.125000 0.125000
vt 3.500000 0.328125
vt 3.218750 0.031250
vt -2.312500 0.125000
vt 3.125000 0.125000
vt 3.500000 0.328125
vt -2.500000 0.328125
vt 3.218750 0.031250
vt 3.500000 0.328125
vt 3.125000 0.125000
vt -2.500000 0.328125
vt -2.312500 0.125000
vt 3.500000 0.328125
vt 3.125000 0.125000
vt 3.218750 0.031250
vt 3.218750 0.031250
vt -2.500000 0.328125
vt -2.312500 0.125000
vn 0.0000 1.0000 0.0000
vn 0.0000 0.0000 -1.0000
vn 0.0000 0.7071 -0.7071
vn 0.0000 0.0000 1.0000
vn 0.0000 -0.7071 0.7071
vn 0.0000 -1.0000 0.0000
vn 0.0000 -0.7071 -0.7071
vn 0.0000 0.7071 0.7071
vn -1.0000 0.0000 0.0000
usemtl Material.001
s off
f 2/1/1 1/2/1 9/3/1 10/4/1
f 5/5/2 6/6/2 14/7/2 13/8/2
f 1/9/3 5/5/3 13/8/3 9/10/3
f 4/11/4 3/12/4 11/13/4 12/14/4
f 7/15/5 4/11/5 12/14/5 15/16/5
f 8/17/6 7/18/6 15/19/6 16/20/6
f 6/21/7 8/17/7 16/20/7 14/22/7
f 3/23/8 2/1/8 10/4/8 11/24/8
f 17/25/9 18/26/9 20/27/9 19/28/9
f 19/28/9 20/27/9 21/29/9
f 21/30/9 22/31/9 23/32/9 19/33/9
f 18/34/9 17/35/9 24/36/9
f 26/37/9 25/38/9 24/36/9 17/35/9
f 26/39/9 28/40/9 25/41/9
f 23/32/9 22/31/9 27/42/9
f 28/40/9 26/39/9 23/43/9 27/44/9
